PathFileType	4	(X/Y/Z)	D:\TRACE\v60_Jaco2_6-2-23\JustBodyDRS_Motion2_3-v60.trc
DataRate	CameraRate	NumFrames	NumMarkers	Units	OrigDataRate	OrigDataStartFrame	OrigNumFrames
100.00	100.00	      41	9	mm	100.00	2563	      6834
Frame#	Time	front left toe			Front right toe			aft left toe			aft right toe			Arm			FL body			FR body			AL Body			AR Body			
		X1	Y1	Z1	X2	Y2	Z2	X3	Y3	Z3	X4	Y4	Z4	X5	Y5	Z5	X6	Y6	Z6	X7	Y7	Z7	X8	Y8	Z8	X9	Y9	Z9	

2563	25.620	-269.53632	-10.84588	-310.91348	116.99357	106.57575	-296.76541	-272.00192	170.24196	320.70804	138.06696	42.72781	307.14444	-193.07910	1169.37378	-500.26654	-155.89476	540.44635	-451.52887	4.95205	542.54431	-453.75845	-142.15654	602.85187	492.83841	14.71831	599.64990	492.36542	
2564	25.630	-268.70764	-10.83550	-310.65216	113.96816	98.71430	-295.59106	-278.05112	163.81230	320.47665	138.76544	42.33921	307.19720	-191.18756	1169.46692	-499.36520	-155.12561	540.06531	-450.37839	5.08203	541.88739	-452.19638	-143.70996	602.33466	492.92148	13.91774	599.75134	492.99594	
2565	25.640	-267.79623	-10.48388	-310.52246	110.88541	90.04544	-294.44763	-283.78619	155.28963	320.69485	139.54337	42.18414	307.54901	-188.72318	1169.38281	-498.80695	-154.94894	539.94696	-449.59756	5.88411	541.61542	-451.42294	-143.75639	603.91187	494.52063	13.53692	599.89612	494.16595	
2566	25.650	-266.70343	-10.27216	-310.38885	108.70931	80.58045	-293.19638	-289.70816	146.08142	320.70264	140.66855	41.94406	307.78885	-185.82780	1169.51831	-498.15024	-153.47951	539.48865	-447.83844	6.26660	541.00403	-450.22314	-143.71480	604.40002	495.33328	13.09977	599.99579	495.28531	
2567	25.660	-266.03259	-9.87964	-310.27335	105.97765	71.08666	-291.62051	-295.63834	135.73642	321.00537	141.45332	41.73055	307.98032	-183.32753	1169.56396	-497.56186	-154.39029	540.10175	-447.33603	6.03202	540.41534	-448.57083	-144.58388	604.62671	496.61832	12.72666	599.76324	496.44922	
2568	25.670	-264.85458	-9.76163	-310.04318	103.12874	61.97047	-290.47354	-301.69736	125.35224	321.59650	142.60522	41.66262	308.25476	-181.10326	1169.39685	-497.00299	-153.81839	539.99139	-446.08521	6.91061	540.12482	-447.43735	-144.56081	604.68964	497.78757	12.17131	599.40082	498.16281	
2569	25.680	-263.97433	-9.60295	-310.07446	99.64603	52.58876	-288.97592	-306.16190	115.19494	322.94885	143.13380	41.33181	308.30106	-178.96094	1169.50305	-495.87354	-153.90877	540.30151	-445.06235	7.35565	539.91791	-446.29248	-144.94827	604.49866	498.83301	11.97324	598.76727	499.26181	
2570	25.690	-263.01816	-9.30198	-309.89441	97.08215	43.33531	-287.41153	-309.31653	106.21635	324.09793	144.46146	41.12553	308.55405	-177.11287	1170.11572	-494.55487	-153.13927	540.26556	-443.66031	7.03408	539.29980	-444.31592	-145.40140	604.58087	500.19693	11.81327	598.00348	500.57788	
2571	25.700	-262.20944	-8.99668	-309.60010	94.82622	34.28540	-285.31299	-310.99081	97.20824	326.12097	145.37769	40.96147	309.06662	-174.62367	1170.18469	-492.71164	-152.76935	540.47778	-442.36954	8.40516	538.69708	-443.14233	-146.02028	604.58734	501.42871	10.89500	597.57837	502.22852	
2572	25.710	-260.99500	-8.92618	-309.49139	93.62862	25.73418	-283.23758	-311.34372	88.86293	328.81821	146.17093	40.86318	309.22903	-171.52487	1170.85510	-490.81970	-151.32730	540.37573	-440.66736	8.52515	538.33301	-441.76828	-146.52161	604.62775	502.58310	10.62183	597.09546	503.65558	
2573	25.720	-260.07336	-8.40808	-309.36148	93.61491	18.17981	-280.55051	-310.79767	80.72835	331.59824	146.94016	40.46886	309.67484	-168.23248	1171.55396	-489.03989	-150.92865	540.42792	-439.06268	8.10633	537.78772	-439.74570	-146.74043	604.41821	504.33115	10.11202	596.56610	505.40851	
2574	25.730	-259.05023	-8.08137	-309.11548	93.92767	10.76965	-277.63556	-309.16321	74.28375	334.69659	148.10077	39.98488	309.89767	-164.48465	1171.83289	-487.70316	-150.68364	540.59460	-437.49088	9.26523	537.58856	-438.26291	-147.44875	604.27185	505.88141	10.32103	595.72858	507.15536	
2575	25.740	-257.92603	-7.64507	-308.92255	95.01148	3.38688	-274.70267	-308.29520	67.93610	337.65866	148.72719	39.87115	309.99966	-160.91196	1171.95776	-486.22382	-150.28679	540.77869	-435.74597	8.93836	537.22235	-436.18326	-147.85675	604.06696	507.58719	9.37473	595.04065	509.08499	
2576	25.750	-257.26102	-7.30375	-308.62930	95.16059	-3.28764	-273.06299	-306.34842	61.26205	340.72800	149.99266	39.68571	310.56418	-157.66571	1171.89514	-484.57275	-149.87071	540.78607	-433.81152	9.71082	536.88019	-434.51547	-148.08165	603.71252	509.53775	9.05039	594.41260	511.17218	
2577	25.760	-256.09869	-7.19301	-308.41135	97.00800	-5.33618	-274.05466	-305.69577	54.31633	343.45621	151.17223	39.44612	310.90387	-155.15115	1171.63611	-482.23270	-149.40446	541.05530	-431.77405	10.19064	536.75690	-432.46045	-148.26035	603.46674	511.53452	8.80625	593.67651	513.29401	
2578	25.770	-254.92444	-6.54350	-308.16245	98.80191	-4.03139	-274.15131	-306.12616	48.06191	346.47815	151.78703	39.07085	311.35788	-153.54054	1172.13196	-479.61551	-149.80635	542.16449	-430.08472	10.31321	537.33612	-429.75552	-148.64502	603.01221	513.86749	8.37564	593.00104	515.63544	
2579	25.780	-253.96608	-5.31051	-307.69684	99.52873	-2.71204	-273.55371	-305.32858	41.03047	348.87390	153.10921	38.29251	311.82693	-152.41461	1173.34900	-476.81909	-148.44893	543.45575	-427.56580	11.48606	538.55829	-427.56915	-148.60493	602.57355	516.05139	8.15414	592.34308	517.95654	
2580	25.790	-252.47946	-4.37858	-307.36441	99.85443	-1.17951	-272.79361	-305.86563	39.33746	346.45410	154.05632	38.00290	312.34125	-152.07747	1174.94214	-472.98776	-148.40984	544.86969	-425.69888	12.35906	539.09637	-425.00809	-148.05449	602.90906	518.07214	8.38249	592.03967	520.30701	
2581	25.800	-251.12505	-3.56415	-306.85031	100.39428	-0.63636	-271.84384	-306.84613	36.58802	346.70804	154.52069	38.38792	312.58527	-152.01126	1176.58923	-468.74823	-147.21436	545.35962	-422.79004	12.73936	539.52472	-422.67657	-147.83400	604.87225	520.02991	8.61924	593.08142	522.56860	
2582	25.810	-250.17030	0.53767	-305.23566	100.46427	-1.21085	-269.52762	-304.28564	36.18733	350.74762	152.13571	41.18628	314.50320	-151.13762	1177.99927	-464.93439	-146.47835	545.83252	-420.84756	13.30423	540.34564	-420.61459	-147.85785	605.95667	522.67047	9.16383	593.83704	524.76520	
2583	25.820	-246.03908	5.22909	-300.02841	101.86477	-0.12605	-270.40567	-303.17361	34.27605	349.04269	148.96613	44.83199	319.32544	-149.94102	1179.58508	-462.43002	-145.95732	546.98663	-419.02667	13.06223	541.88013	-418.90500	-147.30537	605.42914	524.70715	9.78540	593.78162	526.45233	
2584	25.830	-240.93613	11.97990	-294.64401	103.21580	0.17594	-270.08813	-301.78210	33.64989	349.63678	146.04378	50.50197	324.02231	-147.77472	1181.61194	-461.06802	-146.18819	548.79559	-418.02179	14.49154	543.03729	-417.54504	-146.37590	604.75110	526.30560	10.91668	592.75470	528.30328	
2585	25.840	-237.08743	24.39812	-293.20157	104.28458	0.04544	-270.20276	-300.66168	33.26287	350.30716	146.12767	59.74780	326.31863	-145.90173	1182.35852	-460.04681	-144.14223	549.64691	-416.22946	15.55552	543.95325	-416.14627	-145.43858	604.10065	527.60449	11.75517	591.83331	529.62909	
2586	25.850	-235.06818	35.60867	-290.87814	106.07636	0.71797	-269.67563	-299.33966	32.49317	350.17175	146.69331	71.89137	326.94714	-145.12225	1181.81897	-457.77774	-143.70117	550.62115	-415.52957	16.91265	544.72437	-414.86877	-144.40584	603.36639	529.20575	12.58462	591.07770	531.20697	
2587	25.860	-235.37379	49.76983	-291.03781	106.81440	1.00740	-269.33569	-298.83759	32.13424	350.53220	148.90729	84.59058	327.28693	-143.87456	1181.49316	-455.48743	-141.09712	550.57117	-413.55988	18.46914	545.08972	-413.44611	-143.81061	602.27106	530.41528	13.17486	590.15778	532.66687	
2588	25.870	-234.91568	62.36148	-290.37186	108.36723	1.43746	-268.86508	-297.91330	31.21087	350.89905	151.85898	98.56119	328.65881	-143.58185	1181.68225	-452.60294	-139.12698	550.75708	-412.38162	20.09297	545.25281	-411.77161	-143.08701	601.10651	531.89850	14.04494	589.29211	534.01556	
2589	25.880	-233.22589	75.15140	-288.70480	109.49774	1.47636	-268.35300	-296.45007	30.16714	351.23758	154.98689	112.47561	331.40393	-142.69778	1182.69397	-450.34900	-138.14862	551.06500	-411.82590	22.40164	545.33984	-410.84006	-142.35878	600.12030	532.72443	15.10813	588.21790	535.33539	
2590	25.890	-231.81197	88.74464	-286.92929	110.97234	2.09390	-268.38025	-295.48450	30.06698	351.37802	156.72838	125.45113	334.70856	-140.92546	1184.05408	-448.13751	-135.59767	551.01727	-410.40601	24.23100	545.71112	-409.57132	-141.01581	598.96265	534.19458	15.99601	587.18933	536.38403	
2591	25.900	-229.68159	100.34644	-284.15454	112.42540	2.46637	-268.04788	-294.25897	29.53276	351.62390	157.38393	137.26805	338.00211	-139.40596	1184.19763	-446.21530	-134.94336	551.35107	-409.59036	25.27093	546.10999	-408.18369	-139.55510	598.09760	535.33807	17.69607	586.48761	537.59991	
2592	25.910	-226.80440	111.00099	-281.57840	113.51556	2.93075	-267.72214	-292.68680	28.85847	352.15521	158.14874	146.88074	341.86060	-138.53790	1183.74121	-444.60638	-133.42479	551.58856	-408.47104	26.93149	546.47058	-407.05017	-137.97623	597.24670	536.67950	19.05091	585.97839	538.81488	
2593	25.920	-222.89859	119.09227	-278.94144	114.56133	3.21481	-267.24039	-291.75760	28.52517	352.37885	158.83978	154.66144	345.09161	-137.33072	1183.34595	-443.18860	-131.85593	551.60870	-407.22974	28.68090	546.70428	-405.71344	-136.30429	596.26807	538.02106	20.72149	585.09814	540.15594	
2594	25.930	-221.70920	125.82502	-275.03348	115.69215	3.67835	-267.13623	-290.46988	27.78042	352.74423	160.44350	160.66211	348.28217	-136.49284	1183.18628	-441.80304	-128.70256	551.54077	-405.32065	30.42048	547.20685	-404.50333	-134.97588	595.61932	539.40015	22.33157	584.41565	541.49945	
2595	25.940	-220.13304	129.53987	-271.60843	117.06408	3.97504	-267.01089	-289.28787	27.46588	353.07001	163.40157	164.63203	351.73019	-135.49083	1183.59998	-439.97159	-127.78345	552.10291	-404.60129	33.21711	547.68042	-403.39056	-132.77240	594.58478	540.73187	23.90333	583.76501	542.88525	
2596	25.950	-219.09499	130.61696	-267.66653	118.32463	5.04908	-266.32370	-288.39862	27.06307	353.24918	166.44223	166.07153	355.30441	-134.93547	1183.92310	-438.07623	-124.91580	551.96399	-403.04211	35.04006	548.19452	-401.97888	-131.31548	593.86121	541.99933	25.43312	583.34564	544.04913	
2597	25.960	-217.76236	128.98985	-263.83121	119.40623	5.45631	-266.10983	-286.80502	26.08723	353.82074	169.41562	164.23694	359.29428	-133.97914	1184.30383	-435.68152	-122.80032	552.21674	-401.84216	37.12157	548.62793	-400.95029	-129.95496	593.02521	543.32568	27.37499	582.94507	545.43542	
2598	25.970	-215.47159	124.49163	-259.53903	120.74142	5.98523	-265.64496	-285.59613	25.49418	354.10648	171.81216	160.09067	363.31921	-132.88193	1184.54883	-433.59113	-121.31324	552.46735	-400.81711	39.21920	549.27338	-399.47653	-127.51015	592.14764	544.58850	29.33001	582.47375	546.69965	
2599	25.980	-211.29095	119.00961	-256.17581	122.19601	6.62448	-265.28552	-284.64575	24.98819	354.30524	174.03398	154.95087	367.28873	-132.02155	1184.79065	-431.43311	-118.58934	552.72882	-399.24368	41.16319	549.75098	-397.75381	-125.88915	591.23804	546.10443	31.28245	581.84155	548.23108	
2600	25.990	-207.61160	112.90794	-253.04648	123.13763	7.06838	-265.03696	-283.23804	24.16535	354.88120	175.88812	148.75319	371.15536	-131.07785	1185.02625	-429.37964	-116.75658	553.24060	-398.09482	43.94021	550.66418	-396.84592	-123.77866	590.19775	547.18927	33.19981	580.84674	549.72223	
2601	26.000	-203.22360	105.59212	-250.25757	124.29501	7.76977	-264.63397	-282.08008	23.43734	355.04803	178.45404	141.46199	374.87653	-130.70218	1185.43701	-426.92020	-113.84277	553.29712	-396.23935	46.13614	551.45410	-395.33899	-121.88490	589.11908	548.72473	35.46874	580.18628	551.42725	
2602	26.010	-199.75842	97.91203	-247.20154	125.68414	8.38066	-264.22885	-280.77426	22.78491	355.35178	181.07271	133.34502	378.71292	-130.05380	1185.93225	-424.70651	-112.34959	554.05841	-395.21353	48.32547	552.22174	-393.66940	-119.53982	587.89209	550.64148	37.05241	579.32837	552.94946	
2603	26.020	-196.74706	89.31199	-243.97409	126.84770	8.90529	-263.90244	-279.61575	22.12169	355.85498	183.68907	124.62479	382.14822	-129.84914	1186.21497	-421.97787	-109.29613	554.05322	-393.30579	50.56281	552.83380	-391.97592	-117.29928	586.80670	552.31006	39.57539	578.77795	554.28961	
